<svg width="20" height="18" viewBox="0 0 20 18" fill="none" xmlns="http://www.w3.org/2000/svg">
<path d="M15 1.5H5C4.33696 1.5 3.70107 1.73705 3.23223 2.15901C2.76339 2.58097 2.5 3.15326 2.5 3.75V12C2.5 12.5967 2.76339 13.169 3.23223 13.591C3.70107 14.0129 4.33696 14.25 5 14.25H7.15833L9.40833 16.2825C9.4862 16.352 9.57855 16.407 9.68008 16.4443C9.78161 16.4817 9.89033 16.5006 10 16.5C10.1986 16.5 10.3907 16.4362 10.5417 16.32L13.225 14.25H15C15.663 14.25 16.2989 14.0129 16.7678 13.591C17.2366 13.169 17.5 12.5967 17.5 12V3.75C17.5 3.15326 17.2366 2.58097 16.7678 2.15901C16.2989 1.73705 15.663 1.5 15 1.5ZM15.8333 12C15.8333 12.1989 15.7455 12.3897 15.5893 12.5303C15.433 12.671 15.221 12.75 15 12.75H12.9167C12.718 12.75 12.526 12.8138 12.375 12.93L10.0417 14.73L8.09167 12.9675C8.0138 12.898 7.92145 12.843 7.81992 12.8057C7.71839 12.7683 7.60967 12.7494 7.5 12.75H5C4.77899 12.75 4.56702 12.671 4.41074 12.5303C4.25446 12.3897 4.16667 12.1989 4.16667 12V3.75C4.16667 3.55109 4.25446 3.36032 4.41074 3.21967C4.56702 3.07902 4.77899 3 5 3H15C15.221 3 15.433 3.07902 15.5893 3.21967C15.7455 3.36032 15.8333 3.55109 15.8333 3.75V12Z" fill="white"/>
</svg>
