<svg width="47" height="47" viewBox="0 0 47 47" fill="none" xmlns="http://www.w3.org/2000/svg">
<path fill-rule="evenodd" clip-rule="evenodd" d="M45 23.5C45 35.3741 35.3741 45 23.5 45C11.6259 45 2 35.3741 2 23.5C2 11.6259 11.6259 2 23.5 2C35.3741 2 45 11.6259 45 23.5ZM47 23.5C47 36.4787 36.4787 47 23.5 47C10.5213 47 0 36.4787 0 23.5C0 10.5213 10.5213 0 23.5 0C36.4787 0 47 10.5213 47 23.5ZM30.4699 20.1165C30.6146 20.1932 30.7383 20.3043 30.83 20.44C30.9212 20.5751 30.978 20.7305 30.9954 20.8926C31.0129 21.0547 30.9904 21.2186 30.93 21.37L29.33 25.37C29.2559 25.5561 29.1276 25.7156 28.9618 25.8279C28.796 25.9402 28.6003 26.0002 28.4 26H27V33C27 33.2652 26.8946 33.5196 26.7071 33.7071C26.5196 33.8946 26.2652 34 26 34H21.2C20.9348 34 20.6804 33.8946 20.4929 33.7071C20.3054 33.5196 20.2 33.2652 20.2 33V26H18C17.7348 26 17.4804 25.8946 17.2929 25.7071C17.1054 25.5196 17 25.2652 17 25V21C17 20.7348 17.1054 20.4804 17.2929 20.2929C17.4804 20.1054 17.7348 20 18 20H20.2V17.8C20.2 16.2617 20.8111 14.7865 21.8988 13.6988C22.9865 12.6111 24.4617 12 26 12H29.2C29.4652 12 29.7196 12.1054 29.9071 12.2929C30.0946 12.4804 30.2 12.7348 30.2 13V17C30.2 17.2652 30.0946 17.5196 29.9071 17.7071C29.7196 17.8946 29.4652 18 29.2 18H27V20H30C30.1638 19.9998 30.3252 20.0397 30.4699 20.1165ZM26 24H27.72L28.52 22H26C25.7348 22 25.4804 21.8946 25.2929 21.7071C25.1054 21.5196 25 21.2652 25 21V17.8C24.9894 17.5653 25.0265 17.3309 25.109 17.1109C25.1915 16.8909 25.3177 16.6899 25.48 16.52C25.7474 16.3065 26.0558 16.1503 26.3861 16.0608C26.7163 15.9714 27.0614 15.9507 27.4 16H28.2V14H26C24.993 14.0026 24.028 14.4038 23.3159 15.1159C22.6038 15.828 22.2026 16.793 22.2 17.8V21C22.2 21.2652 22.0946 21.5196 21.9071 21.7071C21.7196 21.8946 21.4652 22 21.2 22H19V24H21.2C21.4652 24 21.7196 24.1054 21.9071 24.2929C22.0946 24.4804 22.2 24.7348 22.2 25V32H25V25C25 24.7348 25.1054 24.4804 25.2929 24.2929C25.4804 24.1054 25.7348 24 26 24Z" fill="white"/>
</svg>
