<svg width="47" height="47" viewBox="0 0 47 47" fill="none" xmlns="http://www.w3.org/2000/svg">
<path fill-rule="evenodd" clip-rule="evenodd" d="M45 23.5C45 35.3741 35.3741 45 23.5 45C11.6259 45 2 35.3741 2 23.5C2 11.6259 11.6259 2 23.5 2C35.3741 2 45 11.6259 45 23.5ZM47 23.5C47 36.4787 36.4787 47 23.5 47C10.5213 47 0 36.4787 0 23.5C0 10.5213 10.5213 0 23.5 0C36.4787 0 47 10.5213 47 23.5ZM21.9758 31.0786C22.038 31.2114 22.0703 31.3563 22.0703 31.5029C22.0703 32.2207 22.0772 32.4951 22.082 32.6846L22.0869 33.003C22.0869 33.2682 21.9816 33.5225 21.794 33.7101C21.6065 33.8976 21.3521 34.003 21.0869 34.003C20.8217 34.003 20.5673 33.8976 20.3798 33.7101C20.1923 33.5225 20.0869 33.2682 20.0869 33.003L20.0825 32.7354C20.082 32.7056 20.0811 32.673 20.0801 32.6385L20.0801 32.6368C17.0371 32.8369 15.9785 31.2842 15.6143 30.2608C15.3936 29.7541 15.0803 29.2931 14.6904 28.9014C14.3598 28.7246 13.5449 28.2022 13.5488 27.3867C13.55 27.1223 13.6559 26.8692 13.8433 26.6827C14.0308 26.4962 14.2844 26.3915 14.5488 26.3916H14.5537C14.7559 26.3925 14.9531 26.4547 15.1192 26.5699C15.2854 26.6852 15.4127 26.8481 15.4844 27.0371C15.5368 27.0781 15.5924 27.1147 15.6509 27.1465C16.4699 27.771 17.1046 28.6055 17.4878 29.5615C17.9272 30.7959 19.5801 30.7598 20.8892 30.5195C21.0334 30.493 21.1817 30.4985 21.3236 30.5356C21.4655 30.5728 21.5974 30.6407 21.7101 30.7345C21.8228 30.8283 21.9135 30.9458 21.9758 31.0786ZM32.8276 15.957C32.8003 16.1132 32.7691 16.2519 32.7373 16.3769C33.5773 17.4736 34.0222 18.8219 34 20.2031C34.0024 20.5234 33.987 20.8435 33.9541 21.1621C33.9539 22.7042 33.4065 24.1962 32.4094 25.3725C31.4122 26.5489 30.03 27.3332 28.5088 27.5859C28.5545 27.7225 28.5933 27.8614 28.625 28.0019C28.7357 28.4301 28.7878 28.8713 28.7798 29.3135V31.6631C28.77 32.3105 28.77 32.7861 28.77 33.0029C28.77 33.2681 28.6646 33.5225 28.4771 33.71C28.2896 33.8976 28.0352 34.0029 27.77 34.0029C27.5048 34.0029 27.2504 33.8976 27.0629 33.71C26.8754 33.5225 26.77 33.2681 26.77 33.0029C26.77 32.7803 26.77 32.2949 26.7798 31.6475V29.3135C26.7861 29.0374 26.7551 28.7618 26.6875 28.4941C26.6333 28.1493 26.4698 27.8309 26.2212 27.5859C26.0754 27.4583 25.9698 27.2911 25.9172 27.1045C25.8647 26.918 25.8675 26.7202 25.9252 26.5352C25.983 26.3503 26.0933 26.1861 26.2427 26.0626C26.392 25.9391 26.5741 25.8617 26.7666 25.8398C30.2368 25.4443 31.7422 24.0361 31.9624 20.9804C31.9893 20.7222 32.0018 20.4627 32 20.2031C32.0238 19.2328 31.7044 18.2853 31.0981 17.5273C31.0288 17.4395 30.9516 17.3457 30.8745 17.2588C30.752 17.1218 30.6697 16.9537 30.6366 16.773C30.6034 16.5923 30.6207 16.4059 30.6865 16.2344C30.7626 16.038 30.8192 15.8345 30.8554 15.627C30.9305 15.1003 30.9008 14.564 30.768 14.0488C29.9018 14.2993 29.0872 14.7024 28.3627 15.2393C28.2425 15.3209 28.106 15.3755 27.9626 15.3992C27.8192 15.423 27.6724 15.4154 27.5322 15.377C25.5113 14.8278 23.3804 14.8275 21.3593 15.376C21.2199 15.4144 21.0739 15.4225 20.9311 15.3996C20.7883 15.3767 20.6521 15.3233 20.5317 15.2431C19.8038 14.7085 18.9858 14.3089 18.1167 14.0635C17.9834 14.5913 17.9566 15.1404 18.0381 15.6787C18.074 15.868 18.1259 16.0539 18.1934 16.2344C18.2592 16.4059 18.2764 16.5923 18.2433 16.773C18.2101 16.9537 18.1278 17.1218 18.0054 17.2588C17.9363 17.3326 17.8709 17.4099 17.8096 17.4902C17.199 18.2612 16.8741 19.2198 16.8901 20.2031C16.8876 20.4496 16.8988 20.6961 16.9238 20.9414C17.1494 24.0381 18.6489 25.4453 22.103 25.8398C22.2955 25.8616 22.4775 25.9389 22.6269 26.0622C22.7763 26.1856 22.8866 26.3497 22.9445 26.5346C23.0023 26.7194 23.0051 26.9172 22.9527 27.1036C22.9002 27.2901 22.7947 27.4573 22.6489 27.5849C22.4079 27.8236 22.2448 28.1297 22.1812 28.4629C22.1171 28.7198 21.9538 28.9409 21.727 29.0776C21.5002 29.2144 21.2285 29.2556 20.9713 29.1922C20.7142 29.1289 20.4927 28.9662 20.3554 28.7397C20.218 28.5133 20.1761 28.2417 20.2388 27.9844C20.2739 27.8428 20.3135 27.709 20.3569 27.584C18.2666 27.1094 15.2666 25.7275 14.9326 21.125C14.9016 20.8187 14.8874 20.5109 14.8901 20.2031C14.8758 18.8234 15.3171 17.4775 16.1455 16.374C16.1182 16.2656 16.0918 16.1474 16.0674 16.0195C15.8935 14.8849 16.033 13.7243 16.4707 12.6631C16.5257 12.5248 16.611 12.4006 16.7202 12.2995C16.8294 12.1985 16.9599 12.1232 17.1021 12.0791C17.4546 11.9658 18.7622 11.751 21.2656 13.3339C23.3551 12.8422 25.5302 12.8422 27.6196 13.3339C30.1333 11.7275 31.4477 11.9638 31.8037 12.0839C31.9424 12.1299 32.0694 12.2056 32.1758 12.3058C32.2822 12.406 32.3653 12.5283 32.4194 12.664C32.8484 13.7052 32.9894 14.8426 32.8276 15.957Z" fill="white"/>
</svg>
