<svg width="47" height="47" viewBox="0 0 47 47" fill="none" xmlns="http://www.w3.org/2000/svg">
<path fill-rule="evenodd" clip-rule="evenodd" d="M45 23.5C45 35.3741 35.3741 45 23.5 45C11.6259 45 2 35.3741 2 23.5C2 11.6259 11.6259 2 23.5 2C35.3741 2 45 11.6259 45 23.5ZM47 23.5C47 36.4787 36.4787 47 23.5 47C10.5213 47 0 36.4787 0 23.5C0 10.5213 10.5213 0 23.5 0C36.4787 0 47 10.5213 47 23.5ZM26.9346 20.6435C27.7233 20.2201 28.6047 19.9986 29.5 19.999C30.9581 20.0008 32.356 20.5809 33.3871 21.6119C34.4181 22.643 34.9982 24.0409 35 25.499V32.999C35.0001 33.1303 34.9743 33.2604 34.924 33.3818C34.8738 33.5031 34.8002 33.6134 34.7073 33.7063C34.6144 33.7991 34.5041 33.8728 34.3828 33.923C34.2614 33.9733 34.1313 33.9991 34 33.999H30C29.8687 33.9991 29.7386 33.9733 29.6172 33.923C29.4959 33.8728 29.3856 33.7991 29.2927 33.7063C29.1998 33.6134 29.1262 33.5031 29.076 33.3818C29.0257 33.2604 28.9999 33.1303 29 32.999V27.499C29 27.2338 28.8946 26.9794 28.7071 26.7919C28.5196 26.6044 28.2652 26.499 28 26.499C27.7348 26.499 27.4804 26.6044 27.2929 26.7919C27.1054 26.9794 27 27.2338 27 27.499V32.999C27.0001 33.1303 26.9743 33.2604 26.924 33.3818C26.8738 33.5031 26.8001 33.6134 26.7073 33.7063C26.6144 33.7991 26.5041 33.8728 26.3828 33.923C26.2614 33.9733 26.1313 33.9991 26 33.999H22C21.8687 33.9991 21.7386 33.9733 21.6172 33.923C21.4959 33.8728 21.3856 33.7991 21.2927 33.7063C21.1998 33.6134 21.1262 33.5031 21.076 33.3818C21.0257 33.2604 20.9999 33.1303 21 32.999V20.999C20.9999 20.8677 21.0257 20.7376 21.076 20.6162C21.1262 20.4949 21.1999 20.3846 21.2927 20.2917C21.3856 20.1989 21.4959 20.1252 21.6172 20.075C21.7386 20.0247 21.8687 19.9989 22 19.999H26C26.2028 19.9989 26.4008 20.0605 26.5677 20.1756C26.7346 20.2908 26.8626 20.454 26.9346 20.6435ZM31 31.999H33V25.499C33.0036 24.7736 32.7806 24.0651 32.3622 23.4726C31.9437 22.88 31.3506 22.4329 30.6657 22.1937C29.9809 21.9545 29.2384 21.9352 28.542 22.1384C27.8456 22.3416 27.23 22.7572 26.7812 23.3271C26.6517 23.4888 26.4751 23.6063 26.2759 23.6634C26.0767 23.7204 25.8647 23.7142 25.6692 23.6456C25.4737 23.577 25.3043 23.4494 25.1844 23.2804C25.0646 23.1114 25.0001 22.9093 25 22.7021V21.999H23V31.999H25V27.499C25 26.7034 25.3161 25.9403 25.8787 25.3777C26.4413 24.8151 27.2043 24.499 28 24.499C28.7956 24.499 29.5587 24.8151 30.1213 25.3777C30.6839 25.9403 31 26.7034 31 27.499V31.999ZM15 19.999H19C19.1313 19.9989 19.2614 20.0247 19.3828 20.075C19.5041 20.1252 19.6144 20.1989 19.7073 20.2917C19.8001 20.3846 19.8738 20.4949 19.924 20.6162C19.9743 20.7376 20.0001 20.8677 20 20.999V32.999C20.0001 33.1303 19.9743 33.2604 19.924 33.3818C19.8738 33.5031 19.8001 33.6134 19.7073 33.7063C19.6144 33.7991 19.5041 33.8728 19.3828 33.923C19.2614 33.9733 19.1313 33.9991 19 33.999H15C14.8687 33.9991 14.7386 33.9733 14.6172 33.923C14.4959 33.8728 14.3856 33.7991 14.2927 33.7063C14.1998 33.6134 14.1262 33.5031 14.076 33.3818C14.0257 33.2604 13.9999 33.1303 14 32.999V20.999C13.9999 20.8677 14.0257 20.7376 14.076 20.6162C14.1262 20.4949 14.1999 20.3846 14.2927 20.2917C14.3856 20.1989 14.4959 20.1252 14.6172 20.075C14.7386 20.0247 14.8687 19.9989 15 19.999ZM16 31.999H18V21.999H16V31.999ZM15.7261 12.7274C16.1386 12.5789 16.577 12.5158 17.0147 12.542C17.4536 12.5198 17.8926 12.5873 18.3046 12.7405C18.7166 12.8936 19.0931 13.1292 19.411 13.4327C19.7289 13.7363 19.9816 14.1015 20.1536 14.506C20.3256 14.9106 20.4133 15.3459 20.4114 15.7855C20.4095 16.225 20.318 16.6596 20.1424 17.0626C19.9669 17.4656 19.711 17.8285 19.3904 18.1293C19.0699 18.4301 18.6913 18.6623 18.278 18.8119C17.8646 18.9614 17.4251 19.0251 16.9863 18.999H16.958C16.52 19.0175 16.0827 18.9467 15.6729 18.791C15.2631 18.6352 14.8893 18.3977 14.5741 18.0929C14.2589 17.7882 14.0091 17.4225 13.8397 17.0181C13.6703 16.6137 13.5849 16.1791 13.5888 15.7407C13.5926 15.3023 13.6856 14.8692 13.8621 14.4679C14.0385 14.0666 14.2948 13.7053 14.6152 13.4061C14.9357 13.1069 15.3136 12.876 15.7261 12.7274ZM16.958 16.999H16.9863C17.8516 16.999 18.4111 16.5166 18.4111 15.7705C18.412 15.5943 18.375 15.4199 18.3028 15.2591C18.2306 15.0984 18.1247 14.955 17.9924 14.8385C17.8601 14.7221 17.7043 14.6354 17.5357 14.5843C17.367 14.5331 17.1893 14.5187 17.0147 14.542C16.1484 14.542 15.5889 15.0244 15.5889 15.7705C15.5867 15.9447 15.6217 16.1173 15.6917 16.2769C15.7617 16.4364 15.865 16.5791 15.9946 16.6955C16.1243 16.8118 16.2773 16.8991 16.4435 16.9514C16.6096 17.0038 16.7851 17.02 16.958 16.999Z" fill="white"/>
</svg>
