<svg width="47" height="47" viewBox="0 0 47 47" fill="none" xmlns="http://www.w3.org/2000/svg">
<path fill-rule="evenodd" clip-rule="evenodd" d="M45 23.5C45 35.3741 35.3741 45 23.5 45C11.6259 45 2 35.3741 2 23.5C2 11.6259 11.6259 2 23.5 2C35.3741 2 45 11.6259 45 23.5ZM47 23.5C47 36.4787 36.4787 47 23.5 47C10.5213 47 0 36.4787 0 23.5C0 10.5213 10.5213 0 23.5 0C36.4787 0 47 10.5213 47 23.5ZM33.2704 12.9785C33.6363 13.0356 33.9799 13.1909 34.2647 13.4277C34.548 13.6625 34.7622 13.9699 34.8843 14.317C35.0065 14.6642 35.0319 15.038 34.958 15.3984L31.6953 31.415C31.5987 31.8762 31.3464 32.2901 30.9809 32.5874C30.6153 32.8847 30.1587 33.0472 29.6875 33.0478C29.2378 33.0475 28.8011 32.8973 28.4463 32.6211L24.416 29.499L21.7138 32.4824L21.5616 32.6106C21.4983 32.6567 21.4297 32.6951 21.3573 32.7251C21.3482 32.729 21.3395 32.7335 21.3308 32.738C21.3187 32.7443 21.3066 32.7505 21.2935 32.755C21.1964 32.7878 21.0949 32.8055 20.9924 32.8073C20.9859 32.8074 20.9801 32.8105 20.9736 32.8105C20.9057 32.8104 20.838 32.8035 20.7715 32.79L20.7647 32.7871L20.7529 32.7861C20.6422 32.7591 20.5371 32.713 20.4422 32.65C20.4175 32.6344 20.3954 32.6179 20.3723 32.6003C20.2912 32.5397 20.2199 32.4669 20.1609 32.3846C20.1571 32.3792 20.1527 32.3743 20.1483 32.3695C20.1432 32.364 20.1382 32.3584 20.134 32.352C20.0829 32.2738 20.0431 32.1889 20.0156 32.0996L17.9951 25.418L14.3701 24.1572C13.9788 24.0207 13.6383 23.7685 13.3937 23.4339C13.1491 23.0994 13.0121 22.6984 13.0007 22.2841C12.9894 21.8698 13.1043 21.4619 13.3302 21.1145C13.5561 20.7671 13.8824 20.4966 14.2656 20.3389L32.1865 13.1035C32.5299 12.9646 32.9044 12.9214 33.2704 12.9785ZM21.0977 26.2422C21.1367 26.0504 21.2315 25.8744 21.3701 25.7363L24.0693 23.0362L20.0041 25.1531L20.7881 27.7462L21.0977 26.2422ZM24.9092 27.3505L29.6719 31.04L32.999 14.999L15.0205 22.1914L18.7449 23.5543L28.9102 18.2617C29.122 18.1512 29.3664 18.1201 29.5991 18.1743C29.8318 18.2284 30.0375 18.3641 30.1788 18.5568C30.3201 18.7494 30.3877 18.9863 30.3695 19.2246C30.3512 19.4628 30.2482 19.6866 30.0791 19.8554L22.9961 26.9384L22.6903 28.4249L23.5557 27.4697C23.725 27.2833 23.9583 27.1675 24.2091 27.1454C24.46 27.1233 24.7099 27.1966 24.9092 27.3505Z" fill="white"/>
</svg>
